HIERARCHY
ROOT Hips
{
	OFFSET 0.000000 0.000000 0.000000
	CHANNELS 6 Xposition Yposition Zposition Zrotation Yrotation Xrotation 
	JOINT LHipJoint
	{
		OFFSET 0.000000 0.000000 0.000000
		CHANNELS 3 Zrotation Yrotation Xrotation
		JOINT LeftUpLeg
		{
			OFFSET 1.363060 -1.794630 0.839290
			CHANNELS 3 Zrotation Yrotation Xrotation
			JOINT LeftLeg
			{
				OFFSET 2.448110 -6.726130 0.000000
				CHANNELS 3 Zrotation Yrotation Xrotation
				JOINT LeftFoot
				{
					OFFSET 2.562200 -7.039590 0.000000
					CHANNELS 3 Zrotation Yrotation Xrotation
					JOINT LeftToeBase
					{
						OFFSET 0.157640 -0.433110 2.322550
						CHANNELS 3 Zrotation Yrotation Xrotation
						End Site
						{
							OFFSET 0.000000 0.000000 0.000000
						}
					}
				}
			}
		}
	}
	JOINT RHipJoint
	{
		OFFSET 0.000000 0.000000 0.000000
		CHANNELS 3 Zrotation Yrotation Xrotation
		JOINT RightUpLeg
		{
			OFFSET -1.305520 -1.794630 0.839290
			CHANNELS 3 Zrotation Yrotation Xrotation
			JOINT RightLeg
			{
				OFFSET -2.542530 -6.985550 0.000000
				CHANNELS 3 Zrotation Yrotation Xrotation
				JOINT RightFoot
				{
					OFFSET -2.568260 -7.056230 0.000000
					CHANNELS 3 Zrotation Yrotation Xrotation
					JOINT RightToeBase
					{
						OFFSET -0.164730 -0.452590 2.363150
						CHANNELS 3 Zrotation Yrotation Xrotation
						End Site
						{
							OFFSET 0.000000 0.000000 0.000000
						}
					}
				}
			}
		}
	}
	JOINT LowerBack
	{
		OFFSET 0.000000 0.000000 0.000000
		CHANNELS 3 Zrotation Yrotation Xrotation
		JOINT Spine
		{
			OFFSET 0.028270 2.035590 -0.193380
			CHANNELS 3 Zrotation Yrotation Xrotation
			JOINT Spine1
			{
				OFFSET 0.056720 2.048850 -0.042750
				CHANNELS 3 Zrotation Yrotation Xrotation
				JOINT Neck
				{
					OFFSET 0.000000 0.000000 0.000000
					CHANNELS 3 Zrotation Yrotation Xrotation
					JOINT Neck1
					{
						OFFSET -0.054170 1.746240 0.172020
						CHANNELS 3 Zrotation Yrotation Xrotation
						JOINT Head
						{
							OFFSET 0.104070 1.761360 -0.123970
							CHANNELS 3 Zrotation Yrotation Xrotation
							End Site
							{
								OFFSET 0.000000 0.000000 0.000000
							}
						}
					}
				}
				JOINT LeftShoulder
				{
					OFFSET 0.000000 0.000000 0.000000
					CHANNELS 3 Zrotation Yrotation Xrotation
					JOINT LeftArm
					{
						OFFSET 3.362410 1.200890 -0.311210
						CHANNELS 3 Zrotation Yrotation Xrotation
						JOINT LeftForeArm
						{
							OFFSET 4.983000 -0.000000 -0.000000
							CHANNELS 3 Zrotation Yrotation Xrotation
							JOINT LeftHand
							{
								OFFSET 3.483560 -0.000000 -0.000000
								CHANNELS 3 Zrotation Yrotation Xrotation
								JOINT LeftFingerBase
								{
									OFFSET 0.000000 0.000000 0.000000
									CHANNELS 3 Zrotation Yrotation Xrotation
									JOINT LeftHandIndex1
									{
										OFFSET 0.715260 -0.000000 -0.000000
										CHANNELS 3 Zrotation Yrotation Xrotation
										End Site
										{
											OFFSET 0.000000 0.000000 0.000000
										}
									}
								}
								JOINT LThumb
								{
									OFFSET 0.000000 0.000000 0.000000
									CHANNELS 3 Zrotation Yrotation Xrotation
									End Site
									{
										OFFSET 0.000000 0.000000 0.000000
									}
								}
							}
						}
					}
				}
				JOINT RightShoulder
				{
					OFFSET 0.000000 0.000000 0.000000
					CHANNELS 3 Zrotation Yrotation Xrotation
					JOINT RightArm
					{
						OFFSET -3.136600 1.374050 -0.404650
						CHANNELS 3 Zrotation Yrotation Xrotation
						JOINT RightForeArm
						{
							OFFSET -5.241900 -0.000000 -0.000000
							CHANNELS 3 Zrotation Yrotation Xrotation
							JOINT RightHand
							{
								OFFSET -3.444170 -0.000000 -0.000000
								CHANNELS 3 Zrotation Yrotation Xrotation
								JOINT RightFingerBase
								{
									OFFSET 0.000000 0.000000 0.000000
									CHANNELS 3 Zrotation Yrotation Xrotation
									JOINT RightHandIndex1
									{
										OFFSET -0.622530 -0.000000 -0.000000
										CHANNELS 3 Zrotation Yrotation Xrotation
										End Site
										{
											OFFSET 0.000000 0.000000 0.000000
										}
									}
								}
								JOINT RThumb
								{
									OFFSET 0.000000 0.000000 0.000000
									CHANNELS 3 Zrotation Yrotation Xrotation
									End Site
									{
										OFFSET 0.000000 0.000000 0.000000
									}
								}
							}
						}
					}
				}
			}
		}
	}
}
MOTION
Frames: 9
Frame Time: 0.008333
-41.002095 17.536783 1.034836 -0.438046 75.109605 3.515604 3.742254 0.576107 -1.732089 -12.971142 -2.029241 -17.712951 4.762624 14.838150 43.958515 -0.774945 6.119168 2.142287 2.417800 -9.686800 -27.968300 -7.077452 -0.171309 -1.856728 20.604613 3.747821 -40.473258 -20.819496 -22.125266 92.507771 -0.169521 -2.105520 -11.090624 -2.284900 9.435900 -27.168600 -7.060701 2.612722 22.816007 0.329967 3.565872 -1.298993 5.216888 1.089004 2.071303 -10.165939 -6.819040 -0.973535 8.147492 -7.976005 -5.658785 8.817500 -1.101900 -7.174100 -0.885091 0.628485 2.253575 -66.502030 4.793169 45.881156 40.981879 -51.871387 -21.128147 -0.815645 -0.084987 -8.218031 43.407760 35.539384 29.144600 -7.125000 0.000000 0.000000 20.223700 73.425400 13.760600 -1.310880 1.138197 2.395338 67.724112 11.484100 -5.920816 -42.969535 48.228159 -25.569631 0.363521 -0.347032 -6.972561 -28.852153 33.775884 -17.378100 7.125000 0.000000 0.000000 1.903700 7.793200 2.145300 
-40.761134 17.656665 1.154717 -2.833388 74.312116 0.950684 3.797682 0.588375 -1.775208 -12.606886 -4.437689 -16.170897 4.956842 14.982731 44.498097 -1.357878 9.722055 2.052632 1.508600 -7.757300 -21.979200 -7.093909 -0.125290 -1.870026 21.017923 4.743755 -40.959973 -20.813857 -22.231228 92.509964 -0.303958 -1.226046 -11.269320 -1.645400 8.084700 -22.971700 -6.730946 2.473391 22.314126 0.291522 3.477844 -1.196438 4.731962 1.053042 2.859433 -9.691863 -6.487620 -1.392312 8.195407 -7.423784 -5.606670 8.774400 -0.864700 -7.230000 -1.044667 0.806319 2.257892 -64.646520 5.302083 45.571179 42.005808 -52.344437 -21.933343 -0.780641 -0.106462 -10.473102 42.555563 31.180109 25.725600 -7.125000 0.000000 0.000000 18.037200 68.412900 10.261800 -1.320188 0.937575 2.406464 68.344211 11.642826 -5.892071 -43.866415 48.699206 -26.355236 0.379238 -0.307068 -8.771606 -27.199122 33.229430 -16.057400 7.125000 0.000000 0.000000 2.684200 6.747400 2.984100 
-40.508958 17.816071 1.278736 -4.182530 73.699853 -0.334868 3.845071 0.556375 -1.937045 -12.291769 -4.304297 -15.210981 4.955209 14.881982 44.258633 -1.588984 11.280021 3.234856 3.848500 -11.956100 -35.576800 -7.108312 -0.135157 -1.952792 21.159136 5.517809 -41.436296 -20.728263 -22.358126 92.270363 -0.408443 -0.492019 -11.345381 -1.238800 7.057700 -19.886400 -5.668324 2.144142 20.664359 0.055073 3.215194 -0.891586 2.303319 1.111127 5.080918 -8.118010 -6.355335 -1.781096 8.525884 -6.999971 -5.960991 8.837400 -0.653500 -7.746600 -1.467494 1.379080 2.333955 -61.264220 4.696574 45.411600 42.697559 -52.653254 -22.660484 -0.726264 -0.345793 -13.600102 40.569541 29.919130 23.596400 -7.125000 0.000000 0.000000 14.687800 66.720100 7.757400 -1.436133 0.467058 2.532690 70.456581 12.611005 -6.023630 -44.438759 49.142105 -26.947753 0.411098 -0.305955 -9.328382 -26.587710 31.894578 -15.152900 7.125000 0.000000 0.000000 2.755100 5.217300 2.997500 
-40.248398 17.963936 1.378256 -4.182188 73.664495 -0.538267 3.766654 0.702848 -1.679183 -12.441258 -4.766170 -14.414326 4.985655 14.843819 44.227127 -1.765022 12.483675 4.025650 1.991600 -8.848600 -25.322700 -7.105552 -0.109857 -1.800368 20.620109 5.447197 -42.216786 -20.736938 -22.340085 92.273569 -0.655171 1.467215 -11.314825 -0.524400 4.640800 -12.886900 -7.172004 1.918132 21.657616 0.412033 2.690935 -1.330870 5.705612 0.612937 2.361167 -10.448438 -5.430039 -0.652882 8.039334 -6.085728 -5.052923 8.870600 -0.325700 -7.416400 -1.115542 0.734213 2.245738 -63.411875 9.037360 44.871360 44.362747 -53.553203 -23.911482 -0.817791 -0.310637 -16.011895 38.900818 30.514333 22.716900 -7.125000 0.000000 0.000000 12.165500 66.737300 6.411700 -1.328127 0.848934 2.369734 67.938290 9.539573 -4.671310 -44.892667 49.253377 -27.210394 0.399313 -0.199745 -9.983470 -26.033199 30.368269 -14.160500 7.125000 0.000000 0.000000 2.777700 3.378900 2.940000 
-39.994589 18.084689 1.497594 -4.887656 72.915748 -1.410603 3.778912 0.748601 -1.694504 -12.409404 -4.195337 -13.532354 5.042929 14.793126 44.259699 -1.922393 13.462080 4.368614 0.809600 -5.742100 -16.038000 -7.107795 -0.103634 -1.800852 20.535511 6.154958 -42.458370 -20.590158 -22.415450 91.858257 -0.761242 2.499716 -11.104249 -0.256900 3.260800 -9.005700 -7.080648 2.036989 21.225324 0.360317 2.867294 -1.287409 5.342824 0.702216 2.790385 -10.115821 -5.279251 -1.040777 8.029307 -5.817481 -4.873016 8.807000 -0.234100 -7.283600 -1.219870 0.836145 2.226375 -61.989308 9.711762 45.145305 45.163295 -53.913081 -24.636812 -0.806313 -0.470169 -19.101769 37.453190 30.519217 21.793700 -7.125000 0.000000 0.000000 9.996000 66.462500 5.194600 -1.330277 0.725899 2.344739 68.457499 9.038224 -5.511468 -44.797896 49.246780 -27.205418 0.409062 -0.169193 -9.971894 -25.091354 29.184666 -13.137900 7.125000 0.000000 0.000000 3.111900 1.894600 3.217700 
-39.742849 18.172776 1.617802 -6.958971 72.141127 -3.593175 3.810246 0.789670 -1.722354 -11.845980 -3.433839 -12.954978 5.123677 14.753786 44.354500 -2.010545 14.029797 4.763117 0.442300 -4.267100 -11.829300 -7.106893 -0.104333 -1.792155 21.153123 6.770896 -42.653411 -20.361391 -22.491238 91.241950 -0.690668 1.835083 -11.193004 -0.489700 4.487000 -12.451000 -6.279771 2.119494 20.888321 0.280928 3.055315 -1.252041 4.347513 0.873880 3.183960 -9.349212 -5.235240 -1.519384 8.020122 -5.635114 -4.749449 8.677200 -0.199300 -7.122100 -1.330163 0.965845 2.191905 -60.316734 10.140611 45.532729 45.485850 -54.019193 -25.027043 -0.769378 -0.653511 -21.661739 36.163321 31.257213 21.425800 -7.125000 0.000000 0.000000 7.901700 67.077300 4.210900 -1.374501 0.650737 2.315553 69.483426 8.427678 -6.497464 -44.841824 49.291669 -27.329761 0.417222 -0.148491 -10.964403 -23.618408 28.293391 -11.974300 7.125000 0.000000 0.000000 3.830400 0.632300 3.881100 
-39.477171 18.261081 1.719173 -8.960656 72.430018 -5.381867 3.819514 0.780161 -1.738673 -11.346617 -3.823523 -12.796783 5.149504 14.750805 44.374061 -2.000410 14.111222 5.314158 0.654000 -5.172700 -14.401900 -7.086120 -0.118674 -1.815484 21.428274 6.228048 -43.263531 -20.133178 -22.510394 90.604362 -0.664920 1.611644 -11.199300 -0.579000 4.872300 -13.544800 -5.160319 1.648614 20.124299 0.275413 2.596746 -1.227546 3.526880 0.728453 3.804219 -8.881040 -5.127384 -2.044363 7.916102 -5.397781 -4.561739 8.575200 -0.109400 -6.975100 -1.438995 1.145550 2.160707 -59.352105 10.565732 45.832537 45.015939 -53.880100 -24.836743 -0.729081 -0.809054 -22.576752 35.828304 33.713014 22.609600 -7.125000 0.000000 0.000000 6.513300 69.796800 3.868900 -1.435585 0.518527 2.294595 70.163769 7.985387 -7.190998 -44.811949 49.336368 -27.404663 0.425766 -0.120466 -12.584822 -21.960419 27.527826 -10.809800 7.125000 0.000000 0.000000 4.697700 -0.512800 4.671300 
-39.216502 18.366590 1.844608 -9.403363 71.825216 -6.228500 3.813454 0.846065 -1.683656 -11.289611 -3.564908 -11.845361 5.114346 14.638553 44.209681 -1.909714 13.556555 5.334652 0.880600 -5.982400 -16.733400 -7.067739 -0.114118 -1.803723 21.410802 6.507166 -43.038514 -19.892416 -22.518646 89.937190 -0.659744 1.738389 -10.930579 -0.495900 4.514900 -12.529800 -5.356660 1.632855 20.190458 0.315012 2.551925 -1.278412 3.941180 0.667711 3.556769 -9.132096 -4.793959 -2.130655 7.741285 -4.974036 -4.165678 8.495400 0.032700 -6.753600 -1.411081 1.083819 2.130150 -59.392556 11.693781 45.319264 44.893136 -53.817999 -24.711911 -0.715482 -0.705758 -24.832421 36.689732 28.511902 20.230400 -7.125000 0.000000 0.000000 9.249600 64.246400 4.329800 -1.442322 0.510625 2.237804 70.345281 6.939857 -7.496202 -45.049015 49.446535 -27.618715 0.434467 -0.063398 -14.986492 -20.461956 26.617249 -9.727100 7.125000 0.000000 0.000000 5.468800 -1.771700 5.321600 
-38.954200 18.441938 1.958718 -9.920098 71.980430 -6.668417 3.791762 0.853221 -1.650929 -11.360085 -3.878797 -11.328588 4.957860 14.484292 43.720845 -1.633935 12.056976 5.836823 0.951500 -6.211900 -17.400500 -7.046563 -0.118658 -1.819762 21.154569 6.120760 -43.476796 -19.690148 -22.520932 89.357326 -0.640556 1.775861 -10.617830 -0.546900 4.737900 -13.162500 -5.158608 1.317911 19.582953 0.346926 2.179741 -1.295656 3.970055 0.482753 3.758880 -9.281035 -4.543371 -2.173886 7.671429 -4.627747 -4.009151 8.514900 0.192900 -6.762900 -1.439699 1.154678 2.116164 -59.341634 12.620430 46.194020 43.532647 -53.363947 -23.706087 -0.690254 -0.810059 -24.357863 34.331264 30.401326 19.794700 -7.125000 0.000000 0.000000 5.446900 65.788600 2.737600 -1.494410 0.415742 2.222796 70.795013 6.023408 -7.925830 -45.404003 49.651781 -27.978863 0.450763 -0.000704 -17.995235 -18.866874 25.581571 -8.620200 7.125000 0.000000 0.000000 6.304200 -3.143800 5.985900 
